<svg width="24" height="24" viewBox="0 0 24 24" fill="none" xmlns="http://www.w3.org/2000/svg">
<path fill-rule="evenodd" clip-rule="evenodd" d="M13.1696 2.25L16 2.25C16.1989 2.25 16.3897 2.32902 16.5303 2.46967L20.5303 6.46967C20.671 6.61032 20.75 6.80109 20.75 7V12.8305C20.75 13.3646 20.75 13.8104 20.7203 14.1747C20.6892 14.5546 20.6221 14.9112 20.4503 15.2485C20.1866 15.7659 19.7659 16.1866 19.2485 16.4503C18.9112 16.6221 18.5546 16.6892 18.1747 16.7203C17.8104 16.75 17.3646 16.75 16.8305 16.75H14.75V19C14.75 20.5188 13.5188 21.75 12 21.75H6C4.48122 21.75 3.25 20.5188 3.25 19V10C3.25 8.48122 4.48122 7.25 6 7.25H9.25V6.16957C9.24999 5.63542 9.24998 5.18957 9.27974 4.82533C9.31078 4.44545 9.37789 4.08879 9.54973 3.75153C9.81338 3.23408 10.2341 2.81338 10.7515 2.54973C11.0888 2.37789 11.4454 2.31078 11.8253 2.27974C12.1896 2.24998 12.6354 2.24999 13.1696 2.25ZM9.25 8.75H6C5.30964 8.75 4.75 9.30965 4.75 10V19C4.75 19.6904 5.30964 20.25 6 20.25H12C12.6904 20.25 13.25 19.6904 13.25 19V16.75H13.1695C12.6354 16.75 12.1896 16.75 11.8253 16.7203C11.4454 16.6892 11.0888 16.6221 10.7515 16.4503C10.2341 16.1866 9.81338 15.7659 9.54973 15.2485C9.37789 14.9112 9.31078 14.5546 9.27974 14.1747C9.24998 13.8104 9.24999 13.3646 9.25 12.8304V8.75ZM11.9475 3.77476C11.6604 3.79822 11.5231 3.8401 11.4325 3.88624C11.1973 4.00608 11.0061 4.19731 10.8862 4.43251C10.8401 4.52307 10.7982 4.66036 10.7748 4.94748C10.7506 5.24336 10.75 5.62757 10.75 6.2V12.8C10.75 13.3724 10.7506 13.7566 10.7748 14.0525C10.7982 14.3396 10.8401 14.4769 10.8862 14.5675C11.0061 14.8027 11.1973 14.9939 11.4325 15.1138C11.5231 15.1599 11.6604 15.2018 11.9475 15.2252C12.2434 15.2494 12.6276 15.25 13.2 15.25H16.8C17.3724 15.25 17.7566 15.2494 18.0525 15.2252C18.3396 15.2018 18.4769 15.1599 18.5675 15.1138C18.8027 14.9939 18.9939 14.8027 19.1138 14.5675C19.1599 14.4769 19.2018 14.3396 19.2252 14.0525C19.2494 13.7566 19.25 13.3724 19.25 12.8V8.75L16.5738 8.75C16.3163 8.75002 16.0798 8.75004 15.8821 8.73389C15.669 8.71647 15.4358 8.67661 15.2055 8.55926C14.8762 8.39148 14.6085 8.12377 14.4407 7.79448C14.3234 7.56418 14.2835 7.33101 14.2661 7.11787C14.25 6.92019 14.25 6.68371 14.25 6.42623L14.25 3.75H13.2C12.6276 3.75 12.2434 3.75058 11.9475 3.77476ZM15.75 3.81066V6.4C15.75 6.6924 15.7506 6.8666 15.7611 6.99573C15.7676 7.07453 15.7761 7.10766 15.7788 7.11654C15.8023 7.16118 15.8388 7.19766 15.8835 7.22118C15.8923 7.22393 15.9255 7.23243 16.0043 7.23887C16.1334 7.24942 16.3076 7.25 16.6 7.25H19.1893L15.75 3.81066ZM15.8809 7.22027C15.8809 7.22026 15.8814 7.22044 15.8824 7.22083L15.8809 7.22027ZM15.7797 7.11913C15.7797 7.11916 15.7795 7.11869 15.7792 7.11764L15.7797 7.11913Z" fill="black"/>
</svg>
