<svg width="32" height="32" viewBox="0 0 32 32" fill="none" xmlns="http://www.w3.org/2000/svg">
<rect width="32" height="32" rx="6" fill="white"/>
<path fill-rule="evenodd" clip-rule="evenodd" d="M7.25 10C7.25 9.58579 7.58579 9.25 8 9.25H24C24.4142 9.25 24.75 9.58579 24.75 10C24.75 10.4142 24.4142 10.75 24 10.75H8C7.58579 10.75 7.25 10.4142 7.25 10ZM7.25 16C7.25 15.5858 7.58579 15.25 8 15.25H24C24.4142 15.25 24.75 15.5858 24.75 16C24.75 16.4142 24.4142 16.75 24 16.75H8C7.58579 16.75 7.25 16.4142 7.25 16ZM7.25 22C7.25 21.5858 7.58579 21.25 8 21.25H24C24.4142 21.25 24.75 21.5858 24.75 22C24.75 22.4142 24.4142 22.75 24 22.75H8C7.58579 22.75 7.25 22.4142 7.25 22Z" fill="black"/>
</svg>
